# xmcd
#
# Track frame offsets: 
#        150
#        13301
#        25183
#        38386
#        52194
#        65100
#        79787
#        90916
#        106515
#        119595
#        136903
#        150684
#        166289
#        174602
#        185738
#        203924
#        217129
#        229873
#        244350
#        257512
#        272242
#        285102
#        295416
#        305994
#        317914
#
# Disc length: 4434 seconds
#
# Revision: 0
# Processed by: cddbd v1.5.2PL0 Copyright (c) Steve Scherf et al.
# Submitted via: ExactAudioCopy v0.95b4
#
DISCID=73115019
DTITLE=Various Artist - DJ Samad-Rare R&B and New Jack
DYEAR=2006
DGENRE=R&B
TTITLE0=Marvin Gaye - Let's Get It On
TTITLE1=Groove Theory - Tell Me (C&J Remix)
TTITLE2=Usher ft. CL Smooth - I Swear In Love (Remix)
TTITLE3=Teddy Pendergrass - Believe In Love (Believe Dat Dub Remix)
TTITLE4=Frankie J - Just Can't Say It's Love
TTITLE5=Jamie Hawkins - Lost My Mind (Scott Storch Remix)
TTITLE6=Dorian - Be Loved
TTITLE7=Craig David - World Filled With Love (DJ Premier Remix)
TTITLE8=Leela James ft. Pete Rock and C.L. Smooth - Crazy Time
TTITLE9=Brandy ft. Mase - Top Of The World (Boogiesoul Remix)
TTITLE10=Flava ft. Macka Diamond - Crazy Thing
TTITLE11=Gary Des-Etages - Dance With Me
TTITLE12=Portrait - Turntables
TTITLE13=Next - Too Close (Phatboy Boogie Remix)
TTITLE14=9 Inch Dix ft. Snoop Dogg - Just The Way You Like It
TTITLE15=Aretha Franklin - Here We Go Again
TTITLE16=Lalah Hathaway - Let Me Move You (Bounce Club Mix)
TTITLE17=Nu colours - Special King Of Lover (C&J Remix)
TTITLE18=Lemar - Soulman
TTITLE19=Chaka Khan - Never Miss The Water (Bonus Track)
TTITLE20=DG - Hush (Bonus Track)
TTITLE21=Siani - Get It On The Floor (Remix)
TTITLE22=Nicci Gilbert - Feel's So Good
TTITLE23=Mary J. Blige - Baggage
TTITLE24=Taral Hicks ft. Missy Elliott - Ooh Ooh Baby
EXTD=
EXTT0=
EXTT1=
EXTT2=
EXTT3=
EXTT4=
EXTT5=
EXTT6=
EXTT7=
EXTT8=
EXTT9=
EXTT10=
EXTT11=
EXTT12=
EXTT13=
EXTT14=
EXTT15=
EXTT16=
EXTT17=
EXTT18=
EXTT19=
EXTT20=
EXTT21=
EXTT22=
EXTT23=
EXTT24=
PLAYORDER=
